<?xml version="1.0" encoding="UTF-8"?>
<svg width="512" height="512" viewBox="0 0 512 512" xmlns="http://www.w3.org/2000/svg">
    <path d="M256 0C397.385 0 512 114.615 512 256S397.385 512 256 512 0 397.385 0 256 114.615 0 256 0z" fill="none"/>
    <path d="M256 64c-106.039 0-192 85.961-192 192s85.961 192 192 192 192-85.961 192-192S362.039 64 256 64zm0 352c-88.366 0-160-71.634-160-160S167.634 96 256 96s160 71.634 160 160-71.634 160-160 160z" fill="#000"/>
    <path d="M256 128c-70.692 0-128 57.308-128 128s57.308 128 128 128 128-57.308 128-128-57.308-128-128-128zm0 224c-52.935 0-96-43.065-96-96s43.065-96 96-96 96 43.065 96 96-43.065 96-96 96z" fill="#000"/>
</svg>