<?xml version="1.0" standalone="no"?>
<!DOCTYPE svg PUBLIC "-//W3C//DTD SVG 20010904//EN"
 "http://www.w3.org/TR/2001/REC-SVG-20010904/DTD/svg10.dtd">
<svg version="1.0" xmlns="http://www.w3.org/2000/svg"
 width="1024.000000pt" height="1024.000000pt" viewBox="0 0 1024.000000 1024.000000"
 preserveAspectRatio="xMidYMid meet">

<g transform="translate(0.000000,1024.000000) scale(0.100000,-0.100000)"
fill="#000000" stroke="none">
<path d="M5166 7909 c-122 -30 -215 -79 -296 -157 l-70 -67 -177 0 c-207 -1
-328 -18 -498 -72 -373 -119 -639 -276 -973 -576 -44 -40 -92 -72 -120 -83
-26 -9 -121 -53 -212 -98 -232 -114 -278 -163 -235 -246 28 -55 87 -52 180 10
33 22 62 35 63 30 6 -17 -56 -139 -105 -208 -57 -80 -204 -336 -260 -453 -58
-121 -97 -250 -89 -294 8 -42 39 -65 87 -65 31 0 43 7 69 38 l31 37 -6 -100
c-3 -55 -7 -215 -10 -355 -5 -224 -9 -263 -28 -325 -18 -57 -22 -95 -22 -205
0 -187 24 -244 101 -244 46 0 73 29 82 88 l7 47 17 -33 c9 -18 39 -80 66 -138
27 -58 80 -149 116 -204 36 -54 71 -117 77 -140 37 -138 123 -307 174 -340 65
-43 129 -25 141 39 3 19 9 35 13 35 4 0 43 -37 87 -83 86 -90 154 -141 321
-240 166 -98 303 -157 587 -253 182 -61 234 -71 295 -54 52 14 53 13 128 -93
31 -45 81 -108 112 -142 31 -33 80 -90 109 -127 59 -75 92 -91 152 -75 47 12
86 51 121 120 16 31 64 103 107 160 43 56 92 123 110 149 32 47 33 47 52 28
28 -28 99 -35 177 -16 282 66 424 116 645 226 252 125 354 191 494 318 l124
113 0 -38 c0 -82 60 -109 119 -54 33 31 107 180 147 293 12 38 43 103 67 145
151 264 178 315 204 378 l28 70 6 -55 c3 -31 11 -65 18 -78 25 -48 93 -57 130
-18 63 67 67 330 7 461 -21 46 -22 56 -13 140 9 89 2 547 -10 615 l-5 35 30
-41 c46 -62 80 -85 121 -82 49 4 85 56 78 113 -10 90 -107 276 -263 503 -92
134 -274 422 -274 433 0 14 33 -3 80 -41 86 -71 122 -77 169 -29 54 54 36 124
-45 180 -57 39 -233 118 -334 150 -62 20 -86 34 -140 84 -311 288 -579 452
-920 565 -85 29 -189 55 -251 64 -135 20 -402 21 -529 1 -148 -23 -153 -22
-88 24 30 22 80 51 111 65 93 41 115 123 44 166 -41 26 -125 25 -231 -1z m4
-206 c0 -5 -25 -37 -54 -71 -30 -35 -56 -76 -59 -90 -8 -41 16 -86 56 -105 46
-22 64 -21 149 8 188 63 405 77 602 36 371 -76 727 -274 1069 -593 127 -119
142 -140 347 -478 79 -129 172 -277 208 -329 81 -118 112 -177 112 -210 0 -26
0 -26 -33 11 -65 73 -113 84 -164 36 -32 -30 -30 -81 11 -207 43 -132 56 -226
56 -394 0 -208 -26 -388 -70 -493 -30 -70 -260 -485 -309 -557 -25 -37 -56
-86 -69 -107 -15 -25 -60 -66 -124 -112 -126 -91 -203 -154 -293 -239 -90 -86
-161 -130 -359 -228 -300 -148 -688 -263 -830 -246 -46 6 -56 3 -98 -25 -64
-42 -100 -86 -143 -172 -44 -86 -102 -168 -119 -168 -13 0 -25 15 -168 200
-120 155 -206 203 -264 149 l-23 -22 -83 33 c-109 42 -177 67 -208 76 -57 15
-277 108 -373 155 -160 81 -235 126 -332 204 -49 39 -151 119 -227 178 -158
124 -254 223 -340 351 -76 113 -271 510 -297 606 -50 179 -48 543 3 765 45
191 46 254 5 275 -30 17 -76 -3 -126 -52 -33 -33 -43 -38 -43 -24 0 24 285
548 324 596 7 8 34 50 60 93 200 326 532 619 895 789 135 64 309 123 435 149
141 29 341 36 429 15 38 -9 83 -16 102 -16 30 0 36 6 63 53 33 59 107 131 155
152 34 15 127 20 127 8z"/>
<path d="M4645 7178 c-11 -6 -48 -38 -82 -71 -82 -80 -84 -107 -15 -192 40
-51 55 -62 97 -73 28 -7 67 -11 88 -8 102 12 249 126 262 203 7 46 -4 77 -36
93 -25 14 -102 -20 -125 -56 -16 -24 -153 -117 -198 -134 -18 -6 -28 -5 -36 5
-9 10 2 28 51 82 79 87 87 104 65 138 -18 27 -39 31 -71 13z"/>
<path d="M5166 7168 c-34 -49 -8 -145 48 -179 56 -34 114 -22 141 31 22 42 19
74 -11 110 -53 62 -147 82 -178 38z"/>
<path d="M3906 7145 c-137 -58 -193 -115 -175 -179 12 -41 47 -68 79 -60 14 3
45 18 70 34 25 16 70 39 100 53 63 27 77 42 86 84 4 23 0 36 -18 56 -33 38
-72 42 -142 12z"/>
<path d="M6046 7137 c-15 -15 -26 -37 -26 -53 0 -34 45 -76 101 -94 24 -7 61
-22 81 -32 56 -27 112 -24 137 8 28 35 26 66 -4 102 -33 40 -137 85 -207 90
-50 4 -59 2 -82 -21z"/>
<path d="M3165 6586 c-102 -116 -124 -159 -105 -206 15 -36 57 -55 92 -41 28
10 165 162 178 197 20 51 -23 114 -76 114 -28 0 -42 -10 -89 -64z"/>
<path d="M6877 6628 c-29 -23 -46 -68 -36 -95 14 -38 149 -183 177 -190 31 -7
88 20 97 47 9 28 -24 93 -81 158 -62 71 -125 103 -157 80z"/>
<path d="M3757 6280 c-250 -31 -519 -200 -694 -435 -143 -190 -208 -413 -205
-700 1 -135 16 -204 63 -297 41 -82 121 -166 165 -174 68 -13 79 -3 144 125
44 87 75 134 120 179 133 137 350 286 575 396 327 158 389 197 448 274 41 53
75 124 83 169 8 52 -12 156 -43 217 -54 106 -184 201 -324 234 -64 16 -251 22
-332 12z m194 -439 c36 -36 38 -75 7 -121 -13 -18 -40 -42 -61 -53 -33 -17
-44 -18 -77 -8 -51 15 -90 62 -90 108 0 27 8 43 34 69 31 31 39 34 96 34 55 0
65 -3 91 -29z m-571 -49 c11 -13 20 -36 20 -51 0 -49 -56 -110 -102 -111 -9 0
-30 12 -47 26 -24 20 -31 34 -31 61 0 45 33 90 73 101 42 11 63 5 87 -26z"/>
<path d="M6101 6274 c-160 -34 -287 -128 -351 -258 -29 -58 -35 -82 -38 -156
-4 -78 -2 -94 21 -143 31 -67 98 -137 164 -170 26 -14 106 -48 177 -77 326
-133 531 -263 720 -461 87 -90 119 -132 210 -277 15 -24 34 -46 42 -49 8 -3
35 2 60 12 35 13 53 29 83 73 59 87 72 118 92 216 32 154 20 358 -31 559 -58
224 -267 485 -498 620 -81 47 -213 97 -302 113 -96 17 -267 16 -349 -2z m279
-409 c35 -18 60 -62 60 -106 0 -39 -65 -109 -101 -109 -37 1 -103 34 -127 65
-37 47 -23 122 29 151 32 18 103 17 139 -1z"/>
<path d="M4936 5840 c-133 -24 -220 -79 -271 -171 -27 -48 -30 -63 -30 -144 0
-75 4 -98 24 -140 50 -102 190 -211 316 -244 90 -24 216 -6 325 46 70 34 183
145 212 210 30 65 31 188 1 253 -38 85 -136 154 -253 179 -73 16 -263 22 -324
11z m71 -196 c22 -22 25 -32 20 -77 -4 -44 -10 -56 -45 -89 -54 -50 -100 -52
-143 -7 -54 58 -31 136 53 178 56 28 83 27 115 -5z"/>
<path d="M4288 5210 c-26 -27 -30 -36 -25 -68 8 -49 86 -161 156 -223 92 -83
302 -173 461 -199 92 -14 341 -12 430 4 41 8 113 27 160 44 180 62 268 124
371 257 51 67 59 83 59 120 0 56 -33 85 -96 85 -34 0 -47 -5 -63 -26 -12 -15
-21 -41 -22 -58 -1 -58 -8 -66 -158 -166 -58 -39 -157 -75 -261 -96 -67 -13
-117 -16 -245 -11 -242 9 -344 40 -488 148 -82 63 -93 75 -104 115 -13 52 -26
70 -64 90 -44 22 -77 17 -111 -16z"/>
<path d="M3411 4364 c-14 -18 -21 -41 -21 -70 0 -36 6 -49 35 -79 20 -19 42
-35 50 -35 8 0 32 -23 52 -51 83 -112 203 -118 203 -11 0 43 -19 65 -83 98
-41 20 -71 51 -99 103 -18 32 -72 71 -100 71 -9 0 -26 -12 -37 -26z"/>
<path d="M6657 4369 c-9 -6 -30 -36 -46 -67 -22 -43 -41 -64 -78 -86 -99 -60
-118 -102 -68 -151 45 -46 77 -34 190 74 115 110 144 161 112 202 -27 35 -76
48 -110 28z"/>
<path d="M4661 3656 c-29 -31 -23 -77 17 -125 21 -26 37 -34 73 -38 41 -5 48
-2 67 22 30 38 29 95 0 122 -56 50 -120 58 -157 19z"/>
<path d="M5313 3665 c-38 -16 -53 -42 -53 -88 0 -43 46 -87 89 -87 59 0 105
70 86 130 -7 21 -60 60 -80 60 -5 -1 -24 -7 -42 -15z"/>
</g>
</svg>
